<svg width="184" height="64" viewBox="0 0 184 64" fill="none" xmlns="http://www.w3.org/2000/svg">
<path d="M165.841 26.1795C168.04 26.1795 169.822 24.3972 169.822 22.1986C169.822 20 168.04 18.2177 165.841 18.2177C163.643 18.2177 161.86 20 161.86 22.1986C161.86 24.3972 163.643 26.1795 165.841 26.1795Z" fill="#FF4500"/>
<path d="M108.984 39.1729C110.937 39.1729 112.064 37.7085 111.989 36.2812C111.952 35.5301 111.876 35.0415 111.801 34.6663C110.599 29.4842 106.394 25.6531 101.398 25.6531C95.4652 25.6531 90.6583 31.0235 90.6583 37.6329C90.6583 44.2423 95.4652 49.6127 101.398 49.6127C105.117 49.6127 107.783 48.261 109.698 46.1204C110.637 45.069 110.449 43.4541 109.322 42.6652C108.384 42.0268 107.22 42.2522 106.356 42.9655C105.53 43.6795 103.953 45.1061 101.398 45.1061C98.3947 45.1061 95.8411 42.5147 95.2776 39.0973H108.984V39.1729ZM101.361 30.1975C104.065 30.1975 106.394 32.3003 107.257 35.192H95.4652C96.329 32.2632 98.6572 30.1975 101.361 30.1975Z" fill="#222222"/>
<path d="M90.8837 28.0191C90.8837 26.8928 90.0577 25.9912 89.0063 25.8036C85.7387 25.3157 82.6594 26.5169 80.8947 28.7331V28.4321C80.8947 27.0426 79.7677 26.1795 78.6414 26.1795C77.4017 26.1795 76.3881 27.1931 76.3881 28.4321V46.8337C76.3881 48.0356 77.289 49.087 78.4909 49.1619C79.8055 49.2368 80.8947 48.2232 80.8947 46.9086V37.4075C80.8947 33.2019 84.0489 29.7467 88.405 30.2353C88.5555 30.2353 88.7053 30.2353 88.8558 30.2353C89.9821 30.1597 90.8837 29.1832 90.8837 28.0191Z" fill="#222222"/>
<path d="M168.094 30.4229C168.094 29.1832 167.08 28.1696 165.841 28.1696C164.601 28.1696 163.588 29.1832 163.588 30.4229C163.588 30.4978 163.588 46.1953 163.588 46.9086C163.588 48.1483 164.601 49.1619 165.841 49.1619C167.08 49.1619 168.094 48.1483 168.094 46.9086C168.094 46.2331 168.094 30.5356 168.094 30.4229Z" fill="#222222"/>
<path d="M134.596 17.9552C134.596 16.7155 133.582 15.7019 132.343 15.7019C131.104 15.7019 130.09 16.7155 130.09 17.9552V27.982C128.55 26.442 126.635 25.6909 124.344 25.6909C118.41 25.6909 113.604 31.0613 113.604 37.6707C113.604 44.2801 118.41 49.6505 124.344 49.6505C126.635 49.6505 128.588 48.8616 130.127 47.3216C130.315 48.3737 131.254 49.1619 132.343 49.1619C133.582 49.1619 134.596 48.1483 134.596 46.9086V17.9552ZM124.381 45.181C120.926 45.181 118.147 41.8392 118.147 37.6707C118.147 33.54 120.926 30.1597 124.381 30.1597C127.837 30.1597 130.616 33.5022 130.616 37.6707C130.616 41.8392 127.799 45.181 124.381 45.181Z" fill="#222222"/>
<path d="M158.105 17.9552C158.105 16.7155 157.091 15.7019 155.851 15.7019C154.612 15.7019 153.598 16.7155 153.598 17.9552V27.982C152.059 26.442 150.144 25.6909 147.852 25.6909C141.919 25.6909 137.112 31.0613 137.112 37.6707C137.112 44.2801 141.919 49.6505 147.852 49.6505C150.144 49.6505 152.096 48.8616 153.636 47.3216C153.824 48.3737 154.762 49.1619 155.851 49.1619C157.091 49.1619 158.105 48.1483 158.105 46.9086V17.9552ZM147.852 45.181C144.397 45.181 141.619 41.8392 141.619 37.6707C141.619 33.54 144.397 30.1597 147.852 30.1597C151.308 30.1597 154.087 33.5022 154.087 37.6707C154.087 41.8392 151.308 45.181 147.852 45.181Z" fill="#222222"/>
<path d="M179.51 46.9464V30.1975H181.501C182.552 30.1975 183.491 29.4086 183.566 28.3194C183.641 27.1553 182.703 26.1795 181.576 26.1795H179.51V23.0246C179.51 21.8227 178.609 20.7713 177.407 20.6964C176.093 20.6215 175.004 21.6351 175.004 22.9497V26.2166H173.126C172.075 26.2166 171.136 27.0055 171.061 28.0947C170.985 29.2588 171.925 30.2353 173.051 30.2353H174.966V46.9842C174.966 48.2232 175.981 49.2368 177.22 49.2368C178.534 49.1619 179.51 48.1854 179.51 46.9464Z" fill="#222222"/>
<path d="M32.3 63.4699C49.6803 63.4699 63.7699 49.3804 63.7699 32C63.7699 14.6197 49.6803 0.530106 32.3 0.530106C14.9197 0.530106 0.830101 14.6197 0.830101 32C0.830101 49.3804 14.9197 63.4699 32.3 63.4699Z" fill="#FF4500"/>
<path d="M53.2923 32C53.2923 29.4464 51.2273 27.4185 48.7108 27.4185C47.4718 27.4185 46.3448 27.9064 45.5188 28.6953C42.3646 26.442 38.0456 24.9776 33.2387 24.79L35.3415 14.9508L42.1763 16.4152C42.2519 18.1428 43.6785 19.5323 45.4439 19.5323C47.2464 19.5323 48.7108 18.0679 48.7108 16.2647C48.7108 14.4622 47.2464 12.9978 45.4439 12.9978C44.1671 12.9978 43.0401 13.7489 42.5144 14.8381L34.8914 13.2232C34.666 13.1854 34.4406 13.2232 34.2901 13.3359C34.1025 13.4486 33.9898 13.6362 33.9527 13.8616L31.6238 24.8271C26.742 24.9776 22.3481 26.442 19.1561 28.7331C18.3301 27.9442 17.2031 27.4563 15.9641 27.4563C13.4105 27.4563 11.3826 29.5213 11.3826 32.0378C11.3826 33.9152 12.5089 35.4923 14.0867 36.2063C14.0111 36.6564 13.974 37.1072 13.974 37.5958C13.974 44.6553 22.1983 50.4016 32.3378 50.4016C42.4773 50.4016 50.7016 44.6931 50.7016 37.5958C50.7016 37.145 50.6638 36.6564 50.5889 36.2063C52.166 35.4923 53.2923 33.8774 53.2923 32ZM21.8224 35.2669C21.8224 33.4644 23.2868 32 25.09 32C26.8925 32 28.3569 33.4644 28.3569 35.2669C28.3569 37.0694 26.8925 38.5345 25.09 38.5345C23.2868 38.5716 21.8224 37.0694 21.8224 35.2669ZM40.1113 43.942C37.858 46.1953 33.5768 46.3458 32.3378 46.3458C31.061 46.3458 26.7798 46.1575 24.5636 43.942C24.2262 43.6039 24.2262 43.0782 24.5636 42.7401C24.9017 42.4027 25.4274 42.4027 25.7655 42.7401C27.1928 44.1674 30.1972 44.6553 32.3378 44.6553C34.4784 44.6553 37.5199 44.1674 38.9094 42.7401C39.2475 42.4027 39.7732 42.4027 40.1113 42.7401C40.4116 43.0782 40.4116 43.6039 40.1113 43.942ZM39.51 38.5716C37.7075 38.5716 36.2431 37.1072 36.2431 35.3047C36.2431 33.5022 37.7075 32.0378 39.51 32.0378C41.3132 32.0378 42.7776 33.5022 42.7776 35.3047C42.7776 37.0694 41.3132 38.5716 39.51 38.5716Z" fill="white"/>
</svg>
