<svg width="170" height="33" viewBox="0 0 170 33" fill="none" xmlns="http://www.w3.org/2000/svg">
<g filter="url(#filter0_d)">
<path d="M14.5312 26C14.3229 25.5938 14.1719 25.0885 14.0781 24.4844C12.9844 25.7031 11.5625 26.3125 9.8125 26.3125C8.15625 26.3125 6.78125 25.8333 5.6875 24.875C4.60417 23.9167 4.0625 22.7083 4.0625 21.25C4.0625 19.4583 4.72396 18.0833 6.04688 17.125C7.38021 16.1667 9.30208 15.6823 11.8125 15.6719H13.8906V14.7031C13.8906 13.9219 13.6875 13.2969 13.2812 12.8281C12.8854 12.3594 12.2552 12.125 11.3906 12.125C10.6302 12.125 10.0312 12.3073 9.59375 12.6719C9.16667 13.0365 8.95312 13.5365 8.95312 14.1719H4.4375C4.4375 13.1927 4.73958 12.2865 5.34375 11.4531C5.94792 10.6198 6.80208 9.96875 7.90625 9.5C9.01042 9.02083 10.25 8.78125 11.625 8.78125C13.7083 8.78125 15.3594 9.30729 16.5781 10.3594C17.8073 11.401 18.4219 12.8698 18.4219 14.7656V22.0938C18.4323 23.6979 18.6562 24.9115 19.0938 25.7344V26H14.5312ZM10.7969 22.8594C11.4635 22.8594 12.0781 22.7135 12.6406 22.4219C13.2031 22.1198 13.6198 21.7188 13.8906 21.2188V18.3125H12.2031C9.94271 18.3125 8.73958 19.0938 8.59375 20.6562L8.57812 20.9219C8.57812 21.4844 8.77604 21.9479 9.17188 22.3125C9.56771 22.6771 10.1094 22.8594 10.7969 22.8594ZM31.0469 21.3281C31.0469 20.776 30.7708 20.3438 30.2188 20.0312C29.6771 19.7083 28.8021 19.4219 27.5938 19.1719C23.5729 18.3281 21.5625 16.6198 21.5625 14.0469C21.5625 12.5469 22.1823 11.2969 23.4219 10.2969C24.6719 9.28646 26.3021 8.78125 28.3125 8.78125C30.4583 8.78125 32.1719 9.28646 33.4531 10.2969C34.7448 11.3073 35.3906 12.6198 35.3906 14.2344H30.875C30.875 13.5885 30.6667 13.0573 30.25 12.6406C29.8333 12.2135 29.1823 12 28.2969 12C27.5365 12 26.9479 12.1719 26.5312 12.5156C26.1146 12.8594 25.9062 13.2969 25.9062 13.8281C25.9062 14.3281 26.1406 14.7344 26.6094 15.0469C27.0885 15.349 27.8906 15.6146 29.0156 15.8438C30.1406 16.0625 31.0885 16.3125 31.8594 16.5938C34.2448 17.4688 35.4375 18.9844 35.4375 21.1406C35.4375 22.6823 34.776 23.9323 33.4531 24.8906C32.1302 25.8385 30.4219 26.3125 28.3281 26.3125C26.9115 26.3125 25.651 26.0625 24.5469 25.5625C23.4531 25.0521 22.5938 24.3594 21.9688 23.4844C21.3438 22.599 21.0312 21.6458 21.0312 20.625H25.3125C25.3542 21.4271 25.651 22.0417 26.2031 22.4688C26.7552 22.8958 27.4948 23.1094 28.4219 23.1094C29.2865 23.1094 29.9375 22.9479 30.375 22.625C30.8229 22.2917 31.0469 21.8594 31.0469 21.3281ZM43.7656 4.9375V9.09375H46.6562V12.4062H43.7656V20.8438C43.7656 21.4688 43.8854 21.9167 44.125 22.1875C44.3646 22.4583 44.8229 22.5938 45.5 22.5938C46 22.5938 46.4427 22.5573 46.8281 22.4844V25.9062C45.9427 26.1771 45.0312 26.3125 44.0938 26.3125C40.9271 26.3125 39.3125 24.7135 39.25 21.5156V12.4062H36.7812V9.09375H39.25V4.9375H43.7656ZM58.6719 13.3281C58.0573 13.2448 57.5156 13.2031 57.0469 13.2031C55.3385 13.2031 54.2188 13.7812 53.6875 14.9375V26H49.1719V9.09375H53.4375L53.5625 11.1094C54.4688 9.55729 55.724 8.78125 57.3281 8.78125C57.8281 8.78125 58.2969 8.84896 58.7344 8.98438L58.6719 13.3281ZM59.5938 17.3906C59.5938 15.7135 59.9167 14.2188 60.5625 12.9062C61.2083 11.5938 62.1354 10.5781 63.3438 9.85938C64.5625 9.14062 65.974 8.78125 67.5781 8.78125C69.8594 8.78125 71.7188 9.47917 73.1562 10.875C74.6042 12.2708 75.4115 14.1667 75.5781 16.5625L75.6094 17.7188C75.6094 20.3125 74.8854 22.3958 73.4375 23.9688C71.9896 25.5312 70.0469 26.3125 67.6094 26.3125C65.1719 26.3125 63.224 25.5312 61.7656 23.9688C60.3177 22.4062 59.5938 20.2812 59.5938 17.5938V17.3906ZM64.1094 17.7188C64.1094 19.3229 64.4115 20.5521 65.0156 21.4062C65.6198 22.25 66.4844 22.6719 67.6094 22.6719C68.7031 22.6719 69.5573 22.2552 70.1719 21.4219C70.7865 20.5781 71.0938 19.2344 71.0938 17.3906C71.0938 15.8177 70.7865 14.599 70.1719 13.7344C69.5573 12.8698 68.6927 12.4375 67.5781 12.4375C66.474 12.4375 65.6198 12.8698 65.0156 13.7344C64.4115 14.5885 64.1094 15.9167 64.1094 17.7188Z" fill="#50B2C0"/>
<path d="M82.625 9.09375L82.7656 10.9844C83.9635 9.51562 85.5833 8.78125 87.625 8.78125C89.8021 8.78125 91.2969 9.64062 92.1094 11.3594C93.2969 9.64062 94.9896 8.78125 97.1875 8.78125C99.0208 8.78125 100.385 9.31771 101.281 10.3906C102.177 11.4531 102.625 13.0573 102.625 15.2031V26H98.0938V15.2188C98.0938 14.2604 97.9062 13.5625 97.5312 13.125C97.1562 12.6771 96.4948 12.4531 95.5469 12.4531C94.1927 12.4531 93.2552 13.099 92.7344 14.3906L92.75 26H88.2344V15.2344C88.2344 14.2552 88.0417 13.5469 87.6562 13.1094C87.2708 12.6719 86.6146 12.4531 85.6875 12.4531C84.4062 12.4531 83.4792 12.9844 82.9062 14.0469V26H78.3906V9.09375H82.625ZM115.906 26C115.698 25.5938 115.547 25.0885 115.453 24.4844C114.359 25.7031 112.938 26.3125 111.188 26.3125C109.531 26.3125 108.156 25.8333 107.062 24.875C105.979 23.9167 105.438 22.7083 105.438 21.25C105.438 19.4583 106.099 18.0833 107.422 17.125C108.755 16.1667 110.677 15.6823 113.188 15.6719H115.266V14.7031C115.266 13.9219 115.062 13.2969 114.656 12.8281C114.26 12.3594 113.63 12.125 112.766 12.125C112.005 12.125 111.406 12.3073 110.969 12.6719C110.542 13.0365 110.328 13.5365 110.328 14.1719H105.812C105.812 13.1927 106.115 12.2865 106.719 11.4531C107.323 10.6198 108.177 9.96875 109.281 9.5C110.385 9.02083 111.625 8.78125 113 8.78125C115.083 8.78125 116.734 9.30729 117.953 10.3594C119.182 11.401 119.797 12.8698 119.797 14.7656V22.0938C119.807 23.6979 120.031 24.9115 120.469 25.7344V26H115.906ZM112.172 22.8594C112.839 22.8594 113.453 22.7135 114.016 22.4219C114.578 22.1198 114.995 21.7188 115.266 21.2188V18.3125H113.578C111.318 18.3125 110.115 19.0938 109.969 20.6562L109.953 20.9219C109.953 21.4844 110.151 21.9479 110.547 22.3125C110.943 22.6771 111.484 22.8594 112.172 22.8594ZM128.672 4.9375V9.09375H131.562V12.4062H128.672V20.8438C128.672 21.4688 128.792 21.9167 129.031 22.1875C129.271 22.4583 129.729 22.5938 130.406 22.5938C130.906 22.5938 131.349 22.5573 131.734 22.4844V25.9062C130.849 26.1771 129.938 26.3125 129 26.3125C125.833 26.3125 124.219 24.7135 124.156 21.5156V12.4062H121.688V9.09375H124.156V4.9375H128.672ZM141.109 22.6719C141.943 22.6719 142.62 22.4427 143.141 21.9844C143.661 21.526 143.932 20.9167 143.953 20.1562H148.188C148.177 21.3021 147.865 22.3542 147.25 23.3125C146.635 24.2604 145.792 25 144.719 25.5312C143.656 26.0521 142.479 26.3125 141.188 26.3125C138.771 26.3125 136.865 25.5469 135.469 24.0156C134.073 22.474 133.375 20.349 133.375 17.6406V17.3438C133.375 14.7396 134.068 12.6615 135.453 11.1094C136.839 9.55729 138.74 8.78125 141.156 8.78125C143.271 8.78125 144.964 9.38542 146.234 10.5938C147.516 11.7917 148.167 13.3906 148.188 15.3906H143.953C143.932 14.5156 143.661 13.8073 143.141 13.2656C142.62 12.7135 141.932 12.4375 141.078 12.4375C140.026 12.4375 139.229 12.8229 138.688 13.5938C138.156 14.3542 137.891 15.5938 137.891 17.3125V17.7812C137.891 19.5208 138.156 20.7708 138.688 21.5312C139.219 22.2917 140.026 22.6719 141.109 22.6719ZM155.172 10.9375C156.37 9.5 157.875 8.78125 159.688 8.78125C163.354 8.78125 165.214 10.9115 165.266 15.1719V26H160.75V15.2969C160.75 14.3281 160.542 13.6146 160.125 13.1562C159.708 12.6875 159.016 12.4531 158.047 12.4531C156.724 12.4531 155.766 12.9635 155.172 13.9844V26H150.656V2H155.172V10.9375Z" fill="#FF4000"/>
</g>
<defs>
<filter id="filter0_d" x="0.0625" y="0" width="169.203" height="32.3125" filterUnits="userSpaceOnUse" color-interpolation-filters="sRGB">
<feFlood flood-opacity="0" result="BackgroundImageFix"/>
<feColorMatrix in="SourceAlpha" type="matrix" values="0 0 0 0 0 0 0 0 0 0 0 0 0 0 0 0 0 0 127 0"/>
<feOffset dy="2"/>
<feGaussianBlur stdDeviation="2"/>
<feColorMatrix type="matrix" values="0 0 0 0 0 0 0 0 0 0 0 0 0 0 0 0 0 0 0.25 0"/>
<feBlend mode="normal" in2="BackgroundImageFix" result="effect1_dropShadow"/>
<feBlend mode="normal" in="SourceGraphic" in2="effect1_dropShadow" result="shape"/>
</filter>
</defs>
</svg>
