<svg width="35" height="35" viewBox="0 0 35 35" fill="none" xmlns="http://www.w3.org/2000/svg">
<path d="M23.3333 13.125C32.0833 13.125 32.0833 18.9583 32.0833 18.9583V21.875H23.3333V18.9583C23.3333 18.9583 23.3333 16.4938 21.6562 14.2917C21.4083 13.9563 21.102 13.6354 20.7812 13.3292C21.5395 13.2125 22.3708 13.125 23.3333 13.125ZM2.91663 18.9583C2.91663 18.9583 2.91663 13.125 11.6666 13.125C20.4166 13.125 20.4166 18.9583 20.4166 18.9583V21.875H2.91663V18.9583ZM13.125 24.7917V27.7083H21.875V24.7917L26.25 29.1667L21.875 33.5417V30.625H13.125V33.5417L8.74996 29.1667L13.125 24.7917ZM11.6666 1.45834C9.24579 1.45834 7.29163 3.41251 7.29163 5.83334C7.29163 8.25418 9.24579 10.2083 11.6666 10.2083C14.0875 10.2083 16.0416 8.25418 16.0416 5.83334C16.0416 3.41251 14.0875 1.45834 11.6666 1.45834ZM23.3333 1.45834C20.9125 1.45834 18.9583 3.41251 18.9583 5.83334C18.9583 8.25418 20.9125 10.2083 23.3333 10.2083C25.7541 10.2083 27.7083 8.25418 27.7083 5.83334C27.7083 3.41251 25.7541 1.45834 23.3333 1.45834Z" fill="#50B2C0"/>
</svg>
