<svg width="35" height="35" viewBox="0 0 35 35" fill="none" xmlns="http://www.w3.org/2000/svg">
<path d="M30.7708 18.2292L32.8125 20.2854L23.2896 29.8958L18.2292 24.7917L20.2708 22.7354L23.2896 25.7688L30.7708 18.2292ZM14.5833 24.7917L18.9583 29.1667H4.375V26.25C4.375 23.0271 9.59583 20.4167 16.0417 20.4167L18.7979 20.5771L14.5833 24.7917ZM16.0417 5.83334C17.5888 5.83334 19.0725 6.44792 20.1665 7.54189C21.2604 8.63585 21.875 10.1196 21.875 11.6667C21.875 13.2138 21.2604 14.6975 20.1665 15.7915C19.0725 16.8854 17.5888 17.5 16.0417 17.5C14.4946 17.5 13.0108 16.8854 11.9169 15.7915C10.8229 14.6975 10.2083 13.2138 10.2083 11.6667C10.2083 10.1196 10.8229 8.63585 11.9169 7.54189C13.0108 6.44792 14.4946 5.83334 16.0417 5.83334Z" fill="#FF4000"/>
</svg>
