<svg width="88" height="25" fill="none" xmlns="http://www.w3.org/2000/svg"><path d="M4.719 20.234h9.953V24H.032V1.25h4.687v18.984zM26.875 24c-.208-.406-.36-.912-.453-1.516-1.094 1.22-2.516 1.828-4.266 1.828-1.656 0-3.031-.479-4.125-1.437-1.083-.958-1.625-2.167-1.625-3.625 0-1.792.662-3.167 1.985-4.125 1.333-.958 3.255-1.443 5.765-1.453h2.078v-.969c0-.781-.203-1.406-.609-1.875-.396-.469-1.026-.703-1.89-.703-.761 0-1.36.182-1.797.547-.428.364-.641.864-.641 1.5H16.78c0-.98.302-1.886.907-2.719.604-.833 1.458-1.484 2.562-1.953 1.104-.48 2.344-.719 3.719-.719 2.083 0 3.734.526 4.953 1.578 1.229 1.042 1.844 2.51 1.844 4.407v7.328c.01 1.604.234 2.817.672 3.64V24h-4.563zm-3.734-3.14c.666 0 1.28-.146 1.843-.438.563-.302.98-.703 1.25-1.203v-2.907h-1.687c-2.26 0-3.464.782-3.61 2.344l-.015.266c0 .562.198 1.026.594 1.39.396.365.937.547 1.625.547zm26.328-5.157c0 2.709-.578 4.823-1.735 6.344-1.156 1.51-2.77 2.265-4.843 2.265-1.834 0-3.297-.703-4.391-2.109L38.297 24h-4.063V0h4.516v8.61c1.042-1.22 2.411-1.829 4.11-1.829 2.062 0 3.676.76 4.843 2.282 1.177 1.51 1.766 3.64 1.766 6.39v.25zm-4.516-.328c0-1.708-.27-2.953-.812-3.734-.542-.792-1.35-1.188-2.422-1.188-1.438 0-2.427.589-2.969 1.766v6.672c.552 1.187 1.552 1.78 3 1.78 1.458 0 2.417-.718 2.875-2.155.219-.688.328-1.735.328-3.141zm15.094 8.938c-2.48 0-4.5-.76-6.063-2.282-1.552-1.52-2.328-3.547-2.328-6.078v-.437c0-1.698.328-3.214.985-4.547.656-1.344 1.583-2.375 2.78-3.094 1.21-.73 2.584-1.094 4.126-1.094 2.312 0 4.13.73 5.453 2.188 1.333 1.458 2 3.526 2 6.203v1.844H56.234c.146 1.104.584 1.99 1.313 2.656.74.666 1.672 1 2.797 1 1.74 0 3.099-.63 4.078-1.89l2.219 2.484c-.678.958-1.594 1.708-2.75 2.25-1.157.53-2.438.797-3.844.797zm-.516-13.875c-.896 0-1.625.302-2.187.906-.552.604-.907 1.469-1.063 2.594h6.282v-.36c-.021-1-.292-1.77-.813-2.312-.52-.553-1.26-.829-2.219-.829z" fill="#D69E2E"/><path d="M78.016 9.094L82.28 1.25h5.39l-6.624 11.281L87.844 24H82.39l-4.375-7.969L73.64 24h-5.454l6.797-11.469L68.36 1.25h5.391l4.266 7.844z" fill="#805AD5"/></svg>